<?xml version="1.0" encoding="UTF-8" standalone="no"?>
<svg
   xmlns:dc="http://purl.org/dc/elements/1.1/"
   xmlns:cc="http://creativecommons.org/ns#"
   xmlns:rdf="http://www.w3.org/1999/02/22-rdf-syntax-ns#"
   xmlns:svg="http://www.w3.org/2000/svg"
   xmlns="http://www.w3.org/2000/svg"
   viewBox="0 0 146.66667 146.66667"
   height="146.66667"
   width="146.66667"
   xml:space="preserve"
   id="svg2"
   version="1.1"><metadata
     id="metadata8"><rdf:RDF><cc:Work
         rdf:about=""><dc:format>image/svg+xml</dc:format><dc:type
           rdf:resource="http://purl.org/dc/dcmitype/StillImage" /></cc:Work></rdf:RDF></metadata><defs
     id="defs6"><clipPath
       id="clipPath18"
       clipPathUnits="userSpaceOnUse"><path
         id="path16"
         d="M 0,110 H 110 V 0 H 0 Z" /></clipPath></defs><g
     transform="matrix(1.3333333,0,0,-1.3333333,0,146.66667)"
     id="g10"><g
       id="g12"><g
         clip-path="url(#clipPath18)"
         id="g14"><g
           transform="translate(74.3496,97.0435)"
           id="g20"><path
             id="path22"
             style="fill:#00bfba;fill-opacity:1;fill-rule:evenodd;stroke:none"
             d="m 0,0 c -9.767,1.408 -19.898,-1.196 -27.812,-7.137 -7.118,-5.345 -11.691,-12.928 -12.875,-21.352 -1.074,-7.642 0.988,-15.564 5.658,-21.736 4.167,-5.509 10.055,-9.033 16.58,-9.927 5.886,-0.798 11.971,0.802 16.704,4.407 4.18,3.188 6.847,7.669 7.505,12.622 0.589,4.428 -0.636,9.002 -3.362,12.549 -1.68,2.187 -4.667,4.92 -9.356,5.525 -3.184,0.409 -6.605,-0.519 -9.144,-2.487 -1.558,-1.207 -3.502,-3.343 -3.918,-6.672 -0.276,-2.224 0.382,-4.604 1.762,-6.368 0.819,-1.047 2.261,-2.35 4.482,-2.616 3.038,-0.364 5.207,-3.123 4.842,-6.162 -0.363,-3.038 -3.131,-5.193 -6.163,-4.842 -4.681,0.562 -8.904,2.974 -11.892,6.793 -3.203,4.095 -4.672,9.404 -4.029,14.565 0.692,5.545 3.578,10.54 8.127,14.064 4.892,3.788 11.221,5.508 17.352,4.716 6.602,-0.851 12.543,-4.319 16.727,-9.764 4.508,-5.866 6.535,-13.434 5.56,-20.761 -1.052,-7.896 -5.231,-14.99 -11.775,-19.976 -5.863,-4.468 -13.123,-6.876 -20.444,-6.876 -1.496,0 -2.992,0.101 -4.481,0.304 -9.465,1.295 -17.96,6.344 -23.917,14.22 -6.435,8.505 -9.276,19.426 -7.794,29.965 1.597,11.362 7.704,21.544 17.195,28.671 7.979,5.99 17.708,9.346 27.595,9.687 -20.866,4.854 -43.565,-2.813 -56.932,-21.228 -17.803,-24.53 -12.341,-58.889 12.192,-76.69 24.532,-17.801 58.895,-12.34 76.699,12.189 9.83,13.545 12.554,30.084 8.903,45.18 C 28.728,-13.643 15.432,-2.222 0,0" /></g></g></g></g></svg>